# AST/ASF file generated using VICON BodyLanguage
# -----------------------------------------------
:version 1.10
:name VICON
:units
  mass 1.0
  length 0.45
  angle deg
:documentation
   .ast/.asf automatically generated from VICON data using
   VICON BodyBuilder and BodyLanguage model FoxedUp or BRILLIANT.MOD
:root
   order TX TY TZ RX RY RZ
   axis XYZ
   position 0 0 0  
   orientation 0 0 0 
:bonedata
  begin
     id 1 
     name lhipjoint
     direction 0.655637 -0.713449 0.247245 
     length 2.52691 
     axis 0 0 0  XYZ
  end
  begin
     id 2 
     name lfemur
     direction 0.34202 -0.939693 0  
     length 7.59371  
     axis 0 0 20  XYZ
    dof rx ry rz
    limits (-160.0 20.0)
           (-70.0 70.0)
           (-60.0 70.0)
  end
  begin
     id 3 
     name ltibia
     direction 0.34202 -0.939693 0   
     length 7.28717   
     axis 0 0 20   XYZ
    dof rx
    limits (-10.0 170.0)
  end
  begin
     id 4 
     name lfoot
     direction 0.0886837 -0.243657 0.965798   
     length 2.2218   
     axis -90 7.62852e-016 20   XYZ
    dof rx rz
    limits (-45.0 90.0)
           (-70.0 20.0)
  end
  begin
     id 5 
     name ltoes
     direction 1.53547e-011 -4.22004e-011 1   
     length 1.11249   
     axis -90 7.62852e-016 20   XYZ
    dof rx
    limits (-90.0 20.0)
  end
  begin
     id 6 
     name rhipjoint
     direction -0.645062 -0.722004 0.250209   
     length 2.49697  
     axis 0 0 0  XYZ 
  end
  begin
     id 7 
     name rfemur
     direction -0.34202 -0.939693 0   
     length 7.58734   
     axis 0 0 -20   XYZ
    dof rx ry rz
    limits (-160.0 20.0)
           (-70.0 70.0)
           (-70.0 60.0)
  end
  begin
     id 8 
     name rtibia
     direction -0.34202 -0.939693 0   
     length 7.21538   
     axis 0 0 -20   XYZ
    dof rx
    limits (-10.0 170.0)
 end
 begin
     id 9 
     name rfoot
     direction -0.102907 -0.282735 0.953662   
     length 2.23735  
     axis -90 -7.62852e-016 -20   XYZ
    dof rx rz
    limits (-45.0 90.0)
           (-20.0 70.0)
  end
  begin
     id 10 
     name rtoes
     direction -1.5354e-011 -4.21751e-011 1   
     length 1.11569   
     axis -90 -7.62852e-016 -20   XYZ
    dof rx
    limits (-90.0 20.0)
  end
  begin
     id 11 
     name lowerback
     direction 0.00952301 0.997604 -0.0685217   
     length 2.05943   
     axis 0 0 0   XYZ
    dof rx ry rz
    limits (-20.0 45.0)
           (-30.0 30.0)
           (-30.0 30.0)
  end
  begin
     id 12 
     name upperback
     direction 0.00494399 0.999577 -0.0286701   
     length 2.06523   
     axis 0 0 0   XYZ
    dof rx ry rz
    limits (-20.0 45.0)
           (-30.0 30.0)
           (-30.0 30.0)
  end
  begin
     id 13 
     name thorax
     direction 0.000729686 0.999992 0.00388603   
     length 2.06807   
     axis 0 0 0   XYZ
    dof rx ry rz
    limits (-20.0 45.0)
           (-30.0 30.0)
           (-30.0 30.0)
  end
  begin
     id 14 
     name lowerneck
     direction 0.00452882 0.995459 0.0950816   
     length 1.57426   
     axis 0 0 0   XYZ
    dof rx ry rz
    limits (-20.0 45.0)
           (-30.0 30.0)
           (-30.0 30.0)
  end
  begin
     id 15 
     name upperneck
     direction 0.021922 0.997711 -0.0639762   
     length 1.56399   
     axis 0 0 0   XYZ
    dof rx ry rz
    limits (-20.0 45.0)
           (-30.0 30.0)
           (-30.0 30.0)
  end
  begin
     id 16
     name head
     direction 0.008024 0.999444 -0.0323691  
     length 1.6265  
     axis 0 0 0   XYZ
    dof rx ry rz
    limits (-20.0 45.0)
           (-30.0 30.0)
           (-30.0 30.0)
  end
  begin
     id 17 
     name lclavicle
     direction 0.967826 0.247107 -0.0474446  
     length 3.6598  
     axis 0 0 0   XYZ
    dof ry rz
    limits (-20.0 10.0)
           (0.0 20.0)
  end
  begin
     id 18 
     name lhumerus
     direction 1 -4.48971e-011 -2.90544e-027   
     length 4.86513   
     axis 180 -30 -90   XYZ
    dof rx ry rz
    limits (-60.0 90.0)
           (-90.0 90.0)
           (-90.0 90.0)
  end
  begin
     id 19
     name lradius
     direction 1 -4.48958e-011 1.79638e-026   
     length 3.35554   
     axis 180 -30 -90   XYZ
    dof rx
    limits (-10.0 170.0)
  end
  begin
     id 20
     name lwrist
     direction 1 -4.48952e-011 3.34345e-026   
     length 1.67777   
     axis -2.22354e-014 90 90   XYZ
    dof ry
    limits (-180.0 0.0)
 end
  begin
     id 21 
     name lhand
     direction 1 -4.49055e-011 6.6869e-026   
     length 0.661175   
     axis -4.26681e-014 90 90   XYZ
    dof rx rz
    limits (-90.0 90.0)
           (-45.0 45.0)
  end
  begin
     id 22 
     name lfingers
     direction 1 -4.48731e-011 1.33738e-025   
     length 0.533057   
     axis -8.53362e-014 90 90   XYZ
    dof rx
    limits (0.0 90.0)
  end
  begin
     id 23
     name lthumb
     direction 0.707107 -6.35005e-011 0.707107   
     length 0.765366   
     axis -90 45 2.85299e-015   XYZ
    dof rx rz
    limits (-45.0 45.0)
           (-45.0 45.0)
  end
  begin
     id 24 
     name rclavicle
     direction -0.973174 0.211421 -0.0907389   
     length 3.59444  
     axis 0 0 0   XYZ 
    dof ry rz
    limits (-10.0 20.0)
           (-20.0 0.0)
  end
  begin
     id 25 
     name rhumerus
     direction -1 -4.48964e-011 1.56311e-027  
     length 5.02649   
     axis 180 30 90   XYZ
    dof rx ry rz
    limits (-90.0 60.0)
           (-90.0 90.0)
           (-90.0 90.0)
  end
  begin
     id 26 
     name rradius
     direction -1 -4.48948e-011 2.01724e-026   
     length 3.36431   
     axis 180 30 90   XYZ
    dof rx
    limits (-10.0 170.0)
  end
  begin
     id 27 
     name rwrist
     direction -1 -4.49008e-011 3.34345e-026   
     length 1.68216   
     axis -2.22354e-014 -90 -90   XYZ
    dof ry
    limits (-180.0 0.0)
  end
  begin
     id 28
     name rhand
     direction -1 -4.49013e-011 6.6869e-026   
     length 0.730406   
     axis -4.26681e-014 -90 -90   XYZ
    dof rx rz
    limits (-90.0 90.0)
           (-45.0 45.0)
  end
  begin
     id 29
     name rfingers
     direction -1 -4.48867e-011 1.33738e-025   
     length 0.588872   
     axis -8.53362e-014 -90 -90   XYZ
    dof rx
    limits (0.0 90.0)
  end
  begin
     id 30
     name rthumb
     direction -0.707107 -6.34907e-011 0.707107   
     length 0.845506   
     axis -90 -45 -2.85299e-015   XYZ
    dof rx rz
    limits (-45.0 45.0)
           (-45.0 45.0)
  end
:hierarchy
  begin
    root lhipjoint rhipjoint lowerback
    lhipjoint lfemur
    lfemur ltibia
    ltibia lfoot
    lfoot ltoes
    rhipjoint rfemur
    rfemur rtibia
    rtibia rfoot
    rfoot rtoes
    lowerback upperback
    upperback thorax
    thorax lowerneck lclavicle rclavicle
    lowerneck upperneck
    upperneck head
    lclavicle lhumerus
    lhumerus lradius
    lradius lwrist
    lwrist lhand lthumb
    lhand lfingers
    rclavicle rhumerus
    rhumerus rradius
    rradius rwrist
    rwrist rhand rthumb
    rhand rfingers
  end

#!OML:ASF H:\Terrain\Patient Classification 1\Takeo\Monday\TakeoMonday.ASF
:FULLY-SPECIFIED
:DEGREES

178
root 10.3463 17.385 1.58579 -1.60321 4.43766 5.08347
lowerback 8.8111 -2.05113 -3.85518
upperback 1.477 -3.10496 -0.537208
thorax -3.22659 -1.50292 1.95752
lowerneck -15.0614 0.869912 -4.25186
upperneck -2.83154 1.82858 0.99111
head 1.61948 0.967465 1.16247
rclavicle 1.9953e-014 4.37326e-015
rhumerus -47.2569 -6.21434 -83.9818
rradius 18.047
rwrist -6.19381
rhand -29.838 20.4582
rfingers 7.12502
rthumb -3.16097 -9.49811
lclavicle 1.9953e-014 4.37326e-015
lhumerus -26.944 -8.428 89.4179
lradius 68.3755
lwrist 34.0546
lhand -26.8917 14.5395
lfingers 7.12502
lthumb -0.315473 44.519
rfemur -31.8415 6.4924 12.1454
rtibia 36.0228
rfoot -16.9685 -12.3693
rtoes -20.3036
lfemur 9.63724 -4.40075 -30.9199
ltibia 20.4607
lfoot -15.7277 3.07627
ltoes -11.5344
179
root 10.3286 17.3669 1.83469 -1.34413 5.03713 5.15016
lowerback 8.3965 -2.18703 -3.96608
upperback 1.5483 -3.2728 -0.509549
thorax -2.90404 -1.59347 2.04378
lowerneck -14.8922 0.739775 -4.54923
upperneck -3.03697 1.69343 1.17453
head 1.52338 0.91037 1.2617
rclavicle 1.17034e-014 1.31198e-014
rhumerus -48.1788 -6.56478 -83.7299
rradius 17.787
rwrist -5.87373
rhand -29.5826 19.7738
rfingers 7.12502
rthumb -2.91432 -10.1861
lclavicle 1.17034e-014 1.31198e-014
lhumerus -26.428 -9.03015 89.2436
lradius 70.0199
lwrist 34.1142
lhand -27.0549 13.4263
lfingers 7.12502
lthumb -0.473146 43.4055
rfemur -32.2234 6.90821 11.5576
rtibia 33.6408
rfoot -18.4922 -13.0116
rtoes -17.632
lfemur 10.9566 -4.56542 -30.7702
ltibia 19.0311
lfoot -15.1053 2.5396
ltoes -12.394
180
root 10.3172 17.3571 2.08551 -1.37823 5.66302 4.92815
lowerback 8.26953 -2.39898 -3.75752
upperback 1.68493 -3.52197 -0.380892
thorax -2.68067 -1.72551 2.07408
lowerneck -15.1309 0.635172 -4.52442
upperneck -2.88246 1.56728 0.980684
head 1.62123 0.839645 1.19241
rclavicle 3.32716e-014 9.93923e-015
rhumerus -48.913 -6.6504 -83.5653
rradius 17.3653
rwrist -5.55998
rhand -29.2122 18.7453
rfingers 7.12502
rthumb -2.55666 -11.2191
lclavicle 3.32716e-014 9.93923e-015
lhumerus -25.8357 -9.28201 89.1031
lradius 71.4403
lwrist 33.8883
lhand -26.8442 12.6031
lfingers 7.12502
lthumb -0.269574 42.5827
rfemur -32.3054 7.23828 11.3619
rtibia 31.6894
rfoot -19.4553 -13.7997
rtoes -13.9428
lfemur 12.6114 -4.77655 -30.3471
ltibia 17.4269
lfoot -14.4664 2.1623
ltoes -13.9465
181
root 10.3089 17.3402 2.334 -1.55827 6.20902 4.92953
lowerback 8.3497 -2.55554 -3.64521
upperback 1.87402 -3.71923 -0.416457
thorax -2.52668 -1.82989 1.99182
lowerneck -15.4541 0.717369 -4.1684
upperneck -2.77109 1.64034 0.610691
head 1.71556 0.860939 1.0195
rclavicle -4.82053e-015 -7.55382e-015
rhumerus -49.4933 -6.5981 -83.7608
rradius 16.8415
rwrist -5.55029
rhand -28.9444 18.7636
rfingers 7.12502
rthumb -2.29803 -11.2037
lclavicle -4.82053e-015 -7.55382e-015
lhumerus -25.1164 -9.80677 88.8644
lradius 72.7572
lwrist 34.0414
lhand -26.6116 12.6236
lfingers 7.12502
lthumb -0.0449728 42.6034
rfemur -32.2665 7.05893 11.2036
rtibia 30.1561
rfoot -19.539 -14.6217
rtoes -12.6114
lfemur 14.5901 -4.788 -30.1446
ltibia 15.6574
lfoot -13.7847 1.65894
ltoes -16.1652
182
root 10.3007 17.312 2.58733 -1.74424 6.72433 5.1847
lowerback 8.50594 -2.67569 -3.79552
upperback 1.91177 -3.90135 -0.548096
thorax -2.56252 -1.91913 1.96465
lowerneck -15.2329 0.849936 -3.92578
upperneck -2.80547 1.76921 0.422991
head 1.66351 0.918463 0.920518
rclavicle 1.83876e-015 -7.15625e-015
rhumerus -50.4512 -6.75736 -83.7815
rradius 16.4411
rwrist -5.33229
rhand -28.4522 17.11
rfingers 7.12502
rthumb -1.82263 -12.8619
lclavicle 1.83876e-015 -7.15625e-015
lhumerus -24.8904 -10.3315 88.612
lradius 74.237
lwrist 34.1002
lhand -26.5188 13.1536
lfingers 7.12502
lthumb 0.0446228 43.1334
rfemur -32.2399 6.39447 11.003
rtibia 28.9681
rfoot -19.8544 -14.9208
rtoes -14.5596
lfemur 16.5817 -4.92388 -30.2494
ltibia 13.9902
lfoot -12.8861 0.964645
ltoes -16.5835
183
root 10.2889 17.2914 2.84533 -1.80179 7.20797 5.18781
lowerback 8.58551 -2.81503 -3.87524
upperback 1.75734 -4.0989 -0.461498
thorax -2.74292 -2.01067 2.12758
lowerneck -14.88 0.89468 -3.98238
upperneck -2.61584 1.82568 0.369875
head 1.66353 0.942895 0.91404
rclavicle -2.10463e-014 5.1684e-015
rhumerus -51.716 -7.08173 -83.2462
rradius 16.1498
rwrist -4.41035
rhand -28.326 15.5336
rfingers 7.12502
rthumb -1.7008 -14.4394
lclavicle -2.10463e-014 5.1684e-015
lhumerus -25.0577 -10.3841 88.5897
lradius 75.6591
lwrist 33.6179
lhand -26.1941 13.5585
lfingers 7.12502
lthumb 0.358297 43.538
rfemur -32.3651 5.75252 11.1017
rtibia 28.0381
rfoot -20.8343 -14.846
rtoes -16.812
lfemur 18.1662 -5.23461 -30.1099
ltibia 12.7101
lfoot -12.0571 0.294763
ltoes -15.154
184
root 10.2723 17.2796 3.09819 -1.56751 7.52958 5.14215
lowerback 8.33448 -2.92956 -3.96661
upperback 1.63895 -4.247 -0.330353
thorax -2.70034 -2.08317 2.31663
lowerneck -14.7145 0.943689 -4.07776
upperneck -2.5757 1.89939 0.359774
head 1.64548 0.979397 0.929837
rclavicle 6.79347e-014 -5.96354e-015
rhumerus -52.5933 -7.2919 -82.8018
rradius 15.8348
rwrist -3.53472
rhand -29.2235 20.0596
rfingers 7.12502
rthumb -2.56756 -9.90472
lclavicle 6.79347e-014 -5.96354e-015
lhumerus -24.8645 -10.3818 88.567
lradius 76.6307
lwrist 33.3016
lhand -25.9887 13.1799
lfingers 7.12502
lthumb 0.556685 43.1589
rfemur -32.7422 5.19474 11.2991
rtibia 27.2325
rfoot -21.0753 -14.5216
rtoes -17.8537
lfemur 19.1103 -5.47821 -29.9097
ltibia 12.0628
lfoot -11.469 -0.0691609
ltoes -15.3956
185
root 10.2489 17.2564 3.3475 -1.33034 7.66304 5.04791
lowerback 8.01629 -2.99711 -4.05805
upperback 1.67909 -4.32501 -0.210516
thorax -2.46063 -2.12793 2.47606
lowerneck -14.7489 1.01498 -3.97932
upperneck -2.81467 1.98038 0.178742
head 1.57107 1.01715 0.856502
rclavicle 7.65818e-014 -2.38542e-015
rhumerus -52.964 -7.39995 -82.6241
rradius 15.4082
rwrist -3.14332
rhand -28.3322 17.8614
rfingers 7.12502
rthumb -1.70675 -12.1115
lclavicle 7.65818e-014 -2.38542e-015
lhumerus -24.2447 -10.5241 88.3747
lradius 77.2386
lwrist 33.2526
lhand -26.0347 12.3667
lfingers 7.12502
lthumb 0.512237 42.3458
rfemur -33.005 4.87833 11.6225
rtibia 26.4576
rfoot -20.6883 -14.195
rtoes -18.6443
lfemur 19.6496 -5.70472 -29.7075
ltibia 12.2836
lfoot -11.1648 0.0213975
ltoes -16.5341
186
root 10.2268 17.2172 3.60648 -1.46727 7.80633 4.4967
lowerback 7.92005 -3.07928 -3.63124
upperback 1.76583 -4.38659 -0.00090888
thorax -2.32879 -2.16534 2.45069
lowerneck -14.7309 1.0435 -3.74775
upperneck -2.90389 1.98613 -0.192946
head 1.54165 1.00874 0.696054
rclavicle 1.39646e-014 2.38542e-015
rhumerus -53.3649 -7.47804 -82.4884
rradius 14.8813
rwrist -2.9266
rhand -27.7057 14.7298
rfingers 7.12502
rthumb -1.1017 -15.2471
lclavicle 1.39646e-014 2.38542e-015
lhumerus -23.8714 -10.665 88.1735
lradius 77.9476
lwrist 33.0883
lhand -26.1119 12.0837
lfingers 7.12502
lthumb 0.437693 42.0629
rfemur -32.7484 4.94029 12.3563
rtibia 25.8267
rfoot -20.7298 -13.9507
rtoes -18.0518
lfemur 20.2419 -5.61908 -28.9013
ltibia 13.166
lfoot -11.2398 -0.0648428
ltoes -17.4517
187
root 10.2082 17.1825 3.87059 -1.62623 7.98781 3.91712
lowerback 7.83395 -3.12499 -3.04637
upperback 1.72565 -4.39204 0.202149
thorax -2.35059 -2.1702 2.3315
lowerneck -14.5371 0.964394 -3.87266
upperneck -2.71722 1.89858 -0.304222
head 1.57151 0.960233 0.676693
rclavicle 9.68578e-014 -8.34896e-015
rhumerus -54.0695 -7.83686 -81.9542
rradius 14.3922
rwrist -2.37229
rhand -27.2474 12.8107
rfingers 7.12502
rthumb -0.659038 -17.1681
lclavicle 9.68578e-014 -8.34896e-015
lhumerus -23.9527 -10.7738 88.1794
lradius 78.8546
lwrist 32.7416
lhand -25.6007 12.4767
lfingers 7.12502
lthumb 0.931377 42.4545
rfemur -32.4121 5.3739 12.932
rtibia 25.5632
rfoot -20.8049 -13.904
rtoes -16.668
lfemur 20.6785 -5.41247 -27.9885
ltibia 14.1759
lfoot -11.2285 -0.451639
ltoes -18.6841
188
root 10.189 17.1494 4.13642 -1.53869 8.01488 3.81308
lowerback 7.70162 -3.13409 -3.01315
upperback 1.53989 -4.39698 0.344357
thorax -2.46024 -2.1686 2.45859
lowerneck -14.5201 0.948138 -4.34015
upperneck -2.28085 1.95274 -0.0742419
head 1.70904 0.989546 0.839362
rclavicle -3.96078e-014 2.38542e-015
rhumerus -54.8088 -8.40804 -80.9372
rradius 13.8792
rwrist -1.28942
rhand -27.5178 14.1168
rfingers 7.12502
rthumb -0.920234 -15.8609
lclavicle -3.96078e-014 2.38542e-015
lhumerus -24.3434 -10.722 88.3118
lradius 79.7505
lwrist 32.3973
lhand -24.8778 12.4013
lfingers 7.12502
lthumb 1.62962 42.3748
rfemur -32.3856 5.88894 13.0279
rtibia 25.7345
rfoot -20.404 -14.1599
rtoes -17.1895
lfemur 20.9178 -5.57405 -27.8205
ltibia 15.1121
lfoot -10.7777 -0.473268
ltoes -20.0019
189
root 10.1711 17.1079 4.41128 -1.52827 7.9485 3.80046
lowerback 7.59175 -3.20959 -3.13677
upperback 1.421 -4.50378 0.429244
thorax -2.49908 -2.21885 2.62128
lowerneck -14.6457 1.15177 -4.36208
upperneck -1.88569 2.238 -0.101453
head 1.85745 1.12355 0.85725
rclavicle 2.64384e-014 3.97569e-016
rhumerus -55.291 -8.61344 -80.3597
rradius 13.3434
rwrist -0.607484
rhand -27.8826 16.5313
rfingers 7.12502
rthumb -1.27251 -13.4447
lclavicle 2.64384e-014 3.97569e-016
lhumerus -24.8242 -10.4876 88.2424
lradius 80.4997
lwrist 32.1524
lhand -24.7165 11.6871
lfingers 7.12502
lthumb 1.78537 41.6594
rfemur -32.2701 6.26011 13.1918
rtibia 26.2754
rfoot -20.0703 -14.2542
rtoes -17.4784
lfemur 21.3962 -5.71136 -27.796
ltibia 16.006
lfoot -10.3581 -0.436314
ltoes -20.4817
190
root 10.1529 17.0639 4.69723 -1.75457 7.99775 3.56115
lowerback 7.48714 -3.30091 -2.93525
upperback 1.51513 -4.60202 0.519388
thorax -2.34557 -2.27354 2.59923
lowerneck -14.9189 1.31537 -4.13911
upperneck -1.69308 2.4426 -0.406955
head 1.97112 1.21029 0.738114
rclavicle -3.05631e-014 -4.77083e-015
rhumerus -55.4854 -9.201 -79.5485
rradius 12.7811
rwrist 0.286568
rhand -27.6702 17.0681
rfingers 7.12502
rthumb -1.06738 -12.9089
lclavicle -3.05631e-014 -4.77083e-015
lhumerus -25.0761 -10.3096 88.1416
lradius 81.0731
lwrist 31.9055
lhand -24.6938 11.1976
lfingers 7.12502
lthumb 1.80734 41.1697
rfemur -31.8591 6.53094 13.7012
rtibia 27.188
rfoot -19.9192 -14.299
rtoes -16.3537
lfemur 22.1974 -5.58328 -27.3524
ltibia 16.8013
lfoot -9.95234 -0.72495
ltoes -20.5679
191
root 10.1336 17.0171 4.98886 -2.02517 8.02236 3.43573
lowerback 7.37983 -3.35908 -2.79842
upperback 1.64562 -4.66241 0.574425
thorax -2.15357 -2.30991 2.57168
lowerneck -15.1281 1.39669 -3.97241
upperneck -1.66246 2.54205 -0.722919
head 2.02175 1.24705 0.616454
rclavicle 1.06847e-014 1.23246e-014
rhumerus -55.6619 -11.0436 -77.2009
rradius 11.9004
rwrist 3.20554
rhand -27.2356 16.7718
rfingers 7.12502
rthumb -0.647623 -13.207
lclavicle 1.06847e-014 1.23246e-014
lhumerus -25.3806 -10.189 88.1294
lradius 81.5608
lwrist 31.6619
lhand -24.7175 11.2885
lfingers 7.12502
lthumb 1.78438 41.2608
rfemur -31.4752 6.74756 14.17
rtibia 28.3984
rfoot -19.4324 -14.5024
rtoes -15.4757
lfemur 23.1349 -5.44876 -27.0642
ltibia 17.5104
lfoot -9.18061 -0.906177
ltoes -21.7672
